# xmcd
#
# Track frame offsets: 
#        150
#        11276
#        23943
#        33886
#        45257
#        58286
#        68385
#        77970
#        92136
#        104952
#        118940
#        138665
#        150484
#        162005
#        172113
#        189874
#        201662
#        214277
#        226901
#        242007
#        251590
#        261667
#        273966
#        286438
#        295723
#        309370
#        322119
#        343099
#
# Disc length: 4714 seconds
#
# Revision: 0
# Processed by: cddbd v1.5.2PL0 Copyright (c) Steve Scherf et al.
# Submitted via: ExactAudioCopy v0.99pb5
#
DISCID=a212681c
DTITLE=Various Artist - The Influences Behind Bob Dylan
DYEAR=2012
DGENRE=Blues
TTITLE0=Diamond Joe - Cisco HOuston
TTITLE1=I Had To Stoop To Conquer You - Josh White
TTITLE2=Dizzy, Miss Lizzy - Larry Williams
TTITLE3=Hey Boba Lou - Ronnie Hawkins and The Hawks
TTITLE4=Lord, Send Me An Angl - Blind Willie McTell
TTITLE5=There Stands The Glass - Webb Pierce
TTITLE6=Sweet Was The Wine - Jerry Butler and The Impressions
TTITLE7=Easy Rider Blues - Mance Lipscomb
TTITLE8=Boppin' The Blues - Carl Perkins
TTITLE9=Pretty Boy Floyd - Woody Guthrie
TTITLE10=Dark As A Dungeon - Odetta
TTITLE11=You Win Again - Hank Williams
TTITLE12=Hesitation Blues - Dave Van Ronk
TTITLE13=Girl Next Door Went A' Walking - Elvis Presley
TTITLE14=Casey Jones - Mississippi John Hurt
TTITLE15=Man Of Constant Sorrow - The Stanley Brothers
TTITLE16=My Blue Eyed Jane - Jimmie Rodgers
TTITLE17=Falling Rain Blues - Lonnie Johnson
TTITLE18=The Butcher Boy - the Clancy Brothers with Tommy Makem
TTITLE19=You've Got Love - Buddy Holly and The Crickets
TTITLE20=I'm So Glad - The Staple Singers
TTITLE21=Black, Brown, And White Blues - Big Bill Broonzy
TTITLE22=Trouble Bound - Billy Lee Riley
TTITLE23=Go' Way From My Window - John Jacob Niles
TTITLE24=Mojo Hand - Lightnin' Hopkins
TTITLE25=Screamin' And Cryin' Blues - Sonny Terry and Brownie McGhee
TTITLE26=We Shall Overcome - Pete Seeger
TTITLE27=You Told A Fib - Gene Vincent and His Blue Caps
EXTD=
EXTT0=
EXTT1=
EXTT2=
EXTT3=
EXTT4=
EXTT5=
EXTT6=
EXTT7=
EXTT8=
EXTT9=
EXTT10=
EXTT11=
EXTT12=
EXTT13=
EXTT14=
EXTT15=
EXTT16=
EXTT17=
EXTT18=
EXTT19=
EXTT20=
EXTT21=
EXTT22=
EXTT23=
EXTT24=
EXTT25=
EXTT26=
EXTT27=
PLAYORDER=
